<!-- Generator: Adobe Illustrator 17.1.0, SVG Export Plug-In  -->
<svg version="1.1"
	 xmlns="http://www.w3.org/2000/svg" xmlns:xlink="http://www.w3.org/1999/xlink" xmlns:a="http://ns.adobe.com/AdobeSVGViewerExtensions/3.0/"
	 x="0px" y="0px" width="34.5px" height="32px" viewBox="0 0 34.5 32" enable-background="new 0 0 34.5 32" xml:space="preserve">
<defs>
</defs>
<path fill="#262626" d="M0.3,25.3c4.5,0,7.1-2.6,7.1-10.1c0-0.2,0.3-0.4,0.5-0.2l9.3,10.9c0.2,0.1,0.2,0.4,0,0.5
	c-1.9,1.2-11.3,6.4-17.1-0.5C-0.1,25.6,0.1,25.3,0.3,25.3z"/>
<circle fill="#262626" cx="18.5" cy="16" r="16"/>
<path fill="#FFFFFF" d="M26.8,10.8c-0.6,0.3-1.3,0.5-2,0.5c0.7-0.4,1.2-1.1,1.5-1.9c-0.7,0.4-1.4,0.7-2.2,0.8
	c-0.6-0.7-1.5-1.1-2.5-1.1c-1.9,0-3.4,1.5-3.4,3.4c0,0.3,0,0.5,0.1,0.8c-2.8-0.1-5.4-1.5-7-3.6c-0.3,0.5-0.5,1.1-0.5,1.7
	c0,1.2,0.6,2.2,1.5,2.8c-0.6,0-1.1-0.2-1.5-0.4c0,0,0,0,0,0c0,1.7,1.2,3,2.7,3.4c-0.3,0.1-0.6,0.1-0.9,0.1c-0.2,0-0.4,0-0.6-0.1
	c0.4,1.4,1.7,2.3,3.2,2.4c-1.2,0.9-2.6,1.5-4.2,1.5c-0.3,0-0.5,0-0.8,0c1.5,1,3.3,1.5,5.2,1.5c6.3,0,9.7-5.2,9.7-9.7
	c0-0.1,0-0.3,0-0.4C25.8,12.1,26.3,11.5,26.8,10.8z"/>
</svg>
