<!-- Generator: Adobe Illustrator 17.1.0, SVG Export Plug-In  -->
<svg version="1.1"
	 xmlns="http://www.w3.org/2000/svg" xmlns:xlink="http://www.w3.org/1999/xlink" xmlns:a="http://ns.adobe.com/AdobeSVGViewerExtensions/3.0/"
	 x="0px" y="0px" width="1247.6px" height="386px" viewBox="0 0 1247.6 386" enable-background="new 0 0 1247.6 386"
	 xml:space="preserve">
<defs>
</defs>
<g>
	<path fill="#383838" d="M324.7,31.9H291V12h90.2v20h-33.7v84.1h-22.9V31.9z"/>
	<path fill="#383838" d="M393.7,12h22.9v40.3h45V12h22.9v104.1h-22.9V72.2h-45v43.9h-22.9V12z"/>
	<path fill="#383838" d="M499.6,12h64.3v20h-41.4v20.4h35.7v19h-35.7v24.7h43v20h-65.9V12z"/>
	<path fill="#383838" d="M376.7,243.1c-8.9,4.7-20.1,6.9-30.5,6.9c-33.5,0-56.7-23.2-56.7-53.5c0-30.2,23.2-53.8,56.7-53.8
		c10.5,0,20.7,2.4,28.9,6.5v23.2c-7.6-5.2-18.1-9.1-28.8-9.1c-20.1,0-33.9,14.1-33.9,32.9c0,18.6,13.4,33.2,34.8,33.2
		c10.8,0,20.9-3.7,29.5-9.6V243.1z"/>
	<path fill="#383838" d="M424.1,144.3h22.1l42.3,104.1h-24.4l-8.3-21.9h-42l-8.5,21.9h-23.4L424.1,144.3z M420.8,208.6h28l-4.3-11.6
		c-3-8.2-6.8-18.6-9.5-26.5h-0.3c-2.7,7.9-6.5,18.3-9.8,27L420.8,208.6z"/>
	<path fill="#383838" d="M496,144.3h22.9v84.1h45.6v20H496V144.3z"/>
	<path fill="#383838" d="M572.4,144.3h22.9v104.1h-22.9V144.3z"/>
	<path fill="#383838" d="M611.1,144.3h66v20H634v22.4h37.1v19H634v42.7h-22.9V144.3z"/>
	<path fill="#383838" d="M681.5,196.3c0-30.3,23.4-53.6,54.4-53.6s54.4,23.3,54.4,53.6S766.8,250,735.9,250S681.5,226.7,681.5,196.3
		z M767.4,196.3c0-18.4-13.5-32.9-31.5-32.9c-18,0-31.5,14.5-31.5,32.9s13.5,32.9,31.5,32.9C753.8,229.3,767.4,214.7,767.4,196.3z"
		/>
	<path fill="#383838" d="M803.2,144.3h32.6c12.4,0,24,1.7,32.4,6.9c7.6,4.7,12.5,12.5,12.5,24.4c0,13.4-7.3,24.3-21.1,28.8l29.3,44
		h-26.3l-26.3-41.1h-10.2v41.1h-22.9V144.3z M837.6,190.1c6.2,0,10.9-0.7,14.4-2.4c3.9-2,5.9-5.5,5.9-10.5c0-4.9-1.7-8.1-5.9-10.2
		c-3.6-1.9-9.2-2.7-17.1-2.7h-8.8v25.9H837.6z"/>
	<path fill="#383838" d="M937.1,206.4c-6.8-9.1-13.1-17.8-19.6-26.9l-0.3,0.1c0.1,9.9,0.3,20,0.3,30.1v38.7h-22V144.3h21.6l31.2,42
		c6.8,9.1,13.1,17.8,19.6,26.9l0.3-0.1c-0.1-9.9-0.3-20-0.3-30.1v-38.7h22v104.1h-21.6L937.1,206.4z"/>
	<path fill="#383838" d="M1006,144.3h22.9v104.1H1006V144.3z"/>
	<path fill="#383838" d="M1078.3,144.3h22.1l42.3,104.1h-24.4l-8.3-21.9h-42l-8.5,21.9H1036L1078.3,144.3z M1075,208.6h28l-4.3-11.6
		c-3-8.2-6.8-18.6-9.5-26.5h-0.3c-2.7,7.9-6.5,18.3-9.8,27L1075,208.6z"/>
	<path fill="#383838" d="M294,276.6h64.3v20h-41.4V317h35.7v19h-35.7v24.7h43v20H294V276.6z"/>
	<path fill="#383838" d="M415.6,338.7c-6.8-9.1-13.1-17.8-19.6-26.9l-0.3,0.1c0.1,9.9,0.3,20,0.3,30.1v38.7h-22V276.6h21.6l31.2,42
		c6.8,9.1,13.1,17.8,19.6,26.9l0.3-0.1c-0.1-9.9-0.3-20-0.3-30.1v-38.7h22v104.1h-21.6L415.6,338.7z"/>
	<path fill="#383838" d="M485.2,276.6h29.2c18.6,0,32.9,3,43.7,10.5c12.8,8.9,20,23.6,20,41.4c0,16.4-6.2,30.3-17.3,39.4
		c-10.6,8.6-25.6,12.8-47.5,12.8h-28.2V276.6z M514.4,360.7c14.8,0,24.3-2.6,30.8-8.2c6.2-5.3,10.1-13.7,10.1-24
		c0-10.9-4.3-20.1-12.1-25.6c-7.3-5.2-17.3-6.3-28.9-6.3h-6.2v64.1H514.4z"/>
	<path fill="#383838" d="M585.3,328.6c0-30.3,23.4-53.6,54.4-53.6s54.4,23.3,54.4,53.6s-23.4,53.6-54.4,53.6S585.3,359,585.3,328.6z
		 M671.2,328.6c0-18.4-13.5-32.9-31.5-32.9c-18,0-31.5,14.5-31.5,32.9s13.5,32.9,31.5,32.9C657.7,361.6,671.2,347,671.2,328.6z"/>
	<path fill="#383838" d="M693.7,276.6h24l13.2,44.7c2.6,8.8,5.2,18.1,7.5,26.9h0.3c2.4-8.9,5.2-18.3,7.9-27l13.8-44.6h16.7
		l13.7,44.6c2.7,8.9,5.5,18.1,7.9,27h0.3c2.3-8.8,5-18.4,7.8-27.3l13.4-44.3h23l-32.1,104.1h-24.2L775.7,344
		c-2.7-8.8-5-16.5-7.3-24.9h-0.3c-2.3,8.3-4.7,16.5-7.5,25.3l-11.2,36.2h-23.9L693.7,276.6z"/>
	<path fill="#383838" d="M888.3,335.3c-5.2-7.3-10.4-15-15.2-22.3l-0.3,0.1c0.1,7.5,0.3,17.3,0.3,25.9v41.7h-22V276.6h22l30.9,44
		l30.9-44h21.7v104.1h-22.9V339c0-8.6,0.1-18.4,0.3-25.9l-0.3-0.1c-4.9,7.3-10.1,15-15.2,22.3l-15.1,21.4L888.3,335.3z"/>
	<path fill="#383838" d="M974.8,276.6h64.3v20h-41.4V317h35.7v19h-35.7v24.7h43v20h-65.9V276.6z"/>
	<path fill="#383838" d="M1096.4,338.7c-6.8-9.1-13.1-17.8-19.6-26.9l-0.3,0.1c0.1,9.9,0.3,20,0.3,30.1v38.7h-22V276.6h21.6l31.2,42
		c6.8,9.1,13.1,17.8,19.6,26.9l0.3-0.1c-0.1-9.9-0.3-20-0.3-30.1v-38.7h22v104.1h-21.6L1096.4,338.7z"/>
	<path fill="#383838" d="M1191.1,296.6h-33.7v-20h90.2v20h-33.7v84.1h-22.9V296.6z"/>
</g>
<g>
	<path fill="#F0C519" d="M67.4,84.5l3.2,0.6c-0.2-0.2-0.3-0.5-0.3-0.9l-0.3-16.3c0-0.8,0-1.2,1.8-1.8l86.5-25.7c0.7,0,1.3,0.5,1.3,1
		l0.6,32.4c0,0.3-0.1,0.5-0.3,0.6c-0.3,0.3-0.7,0.4-1.3,0.5L72.3,85.3l8.8,1.6l26.9-3.2l10.4-1.2l40.3-4.8c1.2,0,2.4-0.5,3.2-1.3
		c0.7-0.7,1.1-1.7,1.1-2.7l-0.6-32.4c0-2.2-1.9-3.9-4.4-3.9l0,0l-37.5,11.1l-13.1,3.9L70.8,63.3c-2.8,0.9-3.9,2.2-3.8,4.6l0.3,16.3
		C67.3,84.3,67.4,84.4,67.4,84.5z"/>
	<path fill="#F0C519" d="M164.6,106.6C164.6,106.6,164.6,106.6,164.6,106.6l-44.1-7.8l-12.2-2.2l-31.6-5.6L65,88.9l-8.3-1.5
		c-2.4,0-4.3,1.8-4.3,4.1l-0.5,37.2c0,2.3,1.9,4.1,4.2,4.1l52.9,1.4l11.3,0.3l43.9,1.1h0c2.4,0,4.3-1.8,4.3-4.1v-20.8
		C168.6,108.4,166.7,106.6,164.6,106.6z M165.7,131.5c0,0.6-0.6,1.1-1.3,1.1l-108.2-2.8c-0.7,0-1.4-0.5-1.4-1.1l0.6-37.2
		c0-0.6,0.6-1.1,1.1-1.2l107.9,19.2c0.7,0,1.4,0.5,1.4,1.1V131.5z"/>
	<g>
		<path opacity="0.2" fill-rule="evenodd" clip-rule="evenodd" fill="#010101" d="M272.6,336.4c12.7,1.8,26.3,3.5,37.4,9.4
			c4.7,2.4,11.2,8.7,7.3,13.3c-4.1,4.8-13.6,6.5-20.1,7.6c-19.6,3.6-40.2,4.1-60.2,4.8c-12.6,0.4-25.2,1-37.8,2.1
			c-33.7,2.9-60.1,7.6-81.3,12.3c-1.4,0.3-1.9-0.1-1-0.8c13.8-6.7,30.3-12.7,33.5-23.6c1.5-5-3.9-10.7-1.3-16.1
			c2.7-5.6,11.9-7.9,18.1-9c11.4-2.1,23.6-2.5,35.2-3.2c14.8-0.8,29.7-0.7,44.5,0.4c8.5,0.6,17,1.5,25.4,2.7
			C272.4,336.4,272.5,336.4,272.6,336.4z"/>
		<path fill="#F0C519" d="M117.5,0c-0.6,0-1.1,0-1.7,0c-0.6,0-1.1,0-1.7,0C53,0,0,52.9,0,114.1c0,51.3,48.3,80.9,75.2,134.4
			c27,53.7,35.9,109.2,40.3,136.6c0,0,0,0,0,0c0.1,0.5,0.2,0.8,0.3,0.8c0.1,0,0.2-0.3,0.3-0.8c0,0,0,0,0,0
			c4.4-27.4,13.3-82.8,40.4-136.6c26.9-53.5,75.2-83.1,75.2-134.4C231.6,52.9,178.6,0,117.5,0z M116.3,315.9
			c-2.7,0-5.4-98.3-7.2-176.5l11.1,4.2C119.9,221.1,118.9,315.9,116.3,315.9z M172,135.3c0,2.6-2.1,4.7-4.7,4.7h0l-115.3-3.1
			c-2.6,0-4.7-2.1-4.7-4.7l0.6-45.7c0-2.6,2.1-4.7,4.7-4.7L64.7,84V67.2c0-2,0.5-4.1,4.2-5.4l93.2-29.7c2.6,0,4.7,2.1,4.7,4.7v39.5
			c0,2.6-2.1,4.7-4.7,4.7l-69,8l15.1,2.7c0-1.2,0-2.4-0.1-3.6l12.4,3.4c0,0.8,0,1.6,0,2.4l47.1,8.4c0,0,0,0,0,0
			c2.3,0,4.4,2.1,4.4,4.7V135.3z"/>
	</g>
</g>
</svg>
