<!-- Generator: Adobe Illustrator 17.1.0, SVG Export Plug-In  -->
<svg version="1.1"
	 xmlns="http://www.w3.org/2000/svg" xmlns:xlink="http://www.w3.org/1999/xlink" xmlns:a="http://ns.adobe.com/AdobeSVGViewerExtensions/3.0/"
	 x="0px" y="0px" width="160.5px" height="65.4px" viewBox="0 0 160.5 65.4" enable-background="new 0 0 160.5 65.4"
	 xml:space="preserve">
<defs>
</defs>
<g>
	<path fill="#FFFFFF" d="M11.4,14.3l0.5,0.1c0,0-0.1-0.1-0.1-0.2l0-2.8c0-0.1,0-0.2,0.3-0.3l14.7-4.3C26.9,6.9,27,6.9,27,7l0.1,5.5
		c0,0,0,0.1,0,0.1c0,0-0.1,0.1-0.2,0.1l-14.6,1.8l1.5,0.3l4.6-0.5l1.8-0.2l6.8-0.8c0.2,0,0.4-0.1,0.5-0.2c0.1-0.1,0.2-0.3,0.2-0.5
		L27.5,7c0-0.4-0.3-0.7-0.7-0.7l0,0l-6.3,1.9l-2.2,0.7L12,10.7c-0.5,0.2-0.7,0.4-0.7,0.8L11.4,14.3C11.4,14.3,11.4,14.3,11.4,14.3z"
		/>
	<path fill="#FFFFFF" d="M27.9,18.1C27.9,18.1,27.9,18.1,27.9,18.1l-7.5-1.3l-2.1-0.4l-5.3-1l-2-0.4l-1.4-0.3
		c-0.4,0-0.7,0.3-0.7,0.7l-0.1,6.3c0,0.4,0.3,0.7,0.7,0.7l9,0.2l1.9,0l7.4,0.2h0c0.4,0,0.7-0.3,0.7-0.7v-3.5
		C28.6,18.4,28.2,18.1,27.9,18.1z M28.1,22.3c0,0.1-0.1,0.2-0.2,0.2L9.5,22c-0.1,0-0.2-0.1-0.2-0.2l0.1-6.3c0-0.1,0.1-0.2,0.2-0.2
		l18.3,3.3c0.1,0,0.2,0.1,0.2,0.2V22.3z"/>
	<g>
		<path opacity="0.2" fill-rule="evenodd" clip-rule="evenodd" d="M46.2,57c2.1,0.3,4.5,0.6,6.3,1.6c0.8,0.4,1.9,1.5,1.2,2.3
			c-0.7,0.8-2.3,1.1-3.4,1.3c-3.3,0.6-6.8,0.7-10.2,0.8c-2.1,0.1-4.3,0.2-6.4,0.4c-5.7,0.5-10.2,1.3-13.8,2.1
			c-0.2,0.1-0.3,0-0.2-0.1c2.3-1.1,5.1-2.1,5.7-4c0.2-0.8-0.7-1.8-0.2-2.7c0.5-0.9,2-1.3,3.1-1.5c1.9-0.4,4-0.4,6-0.5
			c2.5-0.1,5-0.1,7.5,0.1C43.3,56.6,44.7,56.8,46.2,57C46.2,57,46.2,57,46.2,57z"/>
		<path fill="#FFFFFF" d="M19.9,0c-0.1,0-0.2,0-0.3,0c-0.1,0-0.2,0-0.3,0C9,0,0,9,0,19.3C0,28,8.2,33,12.7,42.1
			c4.6,9.1,6.1,18.5,6.8,23.1c0,0,0,0,0,0c0,0.1,0,0.1,0,0.1c0,0,0,0,0-0.1c0,0,0,0,0,0c0.7-4.6,2.3-14,6.8-23.1
			C31.1,33,39.2,28,39.2,19.3C39.2,9,30.3,0,19.9,0z M19.7,53.5c-0.5,0-0.9-16.7-1.2-29.9l1.9,0.7C20.3,37.5,20.1,53.5,19.7,53.5z
			 M29.1,22.9c0,0.4-0.4,0.8-0.8,0.8h0L8.8,23.2c-0.4,0-0.8-0.4-0.8-0.8l0.1-7.7c0-0.4,0.4-0.8,0.8-0.8l2.1,0.4v-2.8
			c0-0.3,0.1-0.7,0.7-0.9l15.8-5c0.4,0,0.8,0.4,0.8,0.8v6.7c0,0.4-0.4,0.8-0.8,0.8l-11.7,1.4l2.6,0.5c0-0.2,0-0.4,0-0.6l2.1,0.6
			c0,0.1,0,0.3,0,0.4l8,1.4c0,0,0,0,0,0c0.4,0,0.7,0.4,0.7,0.8V22.9z"/>
	</g>
</g>
<g>
	<path fill="#FFFFFF" d="M56.2,24.7c1.8,0,3.3-0.6,4.5-1.8l0,0l-0.7,1.5h2.8l1-2.1h5.7l1,2.1h2.8h0.1h8.4V22h-5.9v-9.4h-2.6v11.7
		L68,12.5h-2.6l-4.5,10.1l-1.7-1.8L59,21.1c-0.7,0.7-1.7,1.1-2.7,1.1c-2.7,0-3.7-1.9-3.7-3.6c0-1.1,0.4-2.1,1-2.7
		c0.7-0.7,1.6-1,2.7-1c1,0,1.9,0.4,2.6,1L59,16l1.8-1.7l-0.2-0.2c-1.2-1.2-2.7-1.8-4.3-1.8c-1.8,0-3.4,0.6-4.5,1.7
		c-1.1,1.1-1.8,2.8-1.8,4.5C50,21.4,51.6,24.7,56.2,24.7z M64.9,19.8l1.8-4.1l1.8,4.1H64.9z"/>
	<rect x="82.4" y="12.5" fill="#FFFFFF" width="2.6" height="11.9"/>
	<polygon fill="#FFFFFF" points="89.5,20.2 94.1,20.2 94.1,17.7 89.5,17.7 89.5,15.1 94.4,15.1 94.4,12.6 86.9,12.6 86.9,24.4 
		89.5,24.4 	"/>
	<path fill="#FFFFFF" d="M101.7,24.7c4.1,0,6-3.1,6.1-6.1c0-1.7-0.6-3.4-1.7-4.5c-1.1-1.1-2.6-1.7-4.3-1.7c-4.2,0-6.1,3.2-6.1,6.2
		C95.6,21.6,97.5,24.7,101.7,24.7z M98.2,18.6c0-1.1,0.3-2.2,1-2.9c0.6-0.6,1.5-1,2.5-1c1,0,1.8,0.3,2.5,0.9c0.7,0.7,1.1,1.8,1,2.9
		c0,1.8-1,3.7-3.5,3.7C99.2,22.2,98.2,20.3,98.2,18.6z"/>
	<path fill="#FFFFFF" d="M119.9,24.4v-0.4l-3.3-4.4c1.8-0.5,2-1.9,2-3.3c0-2.4-1.3-3.7-3.6-3.7c-0.9,0-1.8,0-2.7,0
		c-0.9,0-1.8,0-2.7,0h-0.2v11.9h2.6v-4.6h1.7l3.3,4.6H119.9z M112,15h2.5c1,0,1.5,0.4,1.5,1.3c0,0.4-0.1,0.7-0.3,0.9
		c-0.3,0.3-0.7,0.4-1.2,0.4H112V15z"/>
	<rect x="133.1" y="12.5" fill="#FFFFFF" width="2.6" height="11.9"/>
	<path fill="#FFFFFF" d="M141.5,12.5l-5.3,11.9h2.8l1-2.1h5.7l1,2.1h2.8l-5.3-11.9H141.5z M144.6,19.8H141l1.8-4.1L144.6,19.8z"/>
	<path fill="#FFFFFF" d="M76.9,30.6h-4.7v11.9h4.7c1.8,0,3.2-0.6,4.3-1.6c1.1-1.1,1.7-2.7,1.6-4.4C82.8,33.6,80.9,30.6,76.9,30.6z
		 M74.8,33.1h2.1c2.4,0,3.3,1.7,3.3,3.3c0,1.1-0.3,2-0.9,2.6c-0.6,0.6-1.4,0.9-2.4,0.9h-2.1V33.1z"/>
	<path fill="#FFFFFF" d="M90.1,30.4c-4.2,0-6.1,3.2-6.1,6.2c0,3,1.9,6.1,6.1,6.1c4.1,0,6-3.1,6.1-6.1c0-1.7-0.6-3.4-1.7-4.5
		C93.4,31,91.9,30.4,90.1,30.4z M93.6,36.6c0,1.8-1,3.7-3.5,3.7c-2.5,0-3.5-1.9-3.5-3.7c0-1.1,0.3-2.2,1-2.9c0.6-0.6,1.5-1,2.5-1
		c1,0,1.8,0.3,2.5,0.9C93.3,34.4,93.7,35.5,93.6,36.6z"/>
	<polygon fill="#FFFFFF" points="108.3,38.4 105.6,30.6 103.9,30.6 101.3,38.4 98.8,30.6 95.9,30.6 100.2,42.5 102.4,42.5 
		103.8,38.8 104.8,35.8 105.8,38.8 107.2,42.5 109.4,42.5 113.6,30.6 110.8,30.6 	"/>
	<polygon fill="#FFFFFF" points="120.9,35.4 117.5,30.6 114.7,30.6 114.7,42.5 117.3,42.5 117.3,34.7 120.6,39.2 121.2,39.2 
		124.6,34.7 124.6,42.5 127.2,42.5 127.2,30.6 124.4,30.6 	"/>
	<polygon fill="#FFFFFF" points="129.1,42.5 136.8,42.5 136.8,39.9 131.7,39.9 131.7,37.8 136.6,37.8 136.6,35.3 131.7,35.3 
		131.7,33.2 136.8,33.2 136.8,30.6 129.1,30.6 	"/>
	<polygon fill="#FFFFFF" points="50.4,42.5 58.1,42.5 58.1,39.9 53,39.9 53,37.8 57.9,37.8 57.9,35.3 53,35.3 53,33.2 58.1,33.2 
		58.1,30.6 50.4,30.6 	"/>
	<polygon fill="#FFFFFF" points="146.7,37.4 140.4,30.6 138.2,30.6 138.2,42.5 140.9,42.5 140.9,35.2 147.6,42.4 147.7,42.3 
		149.2,42.3 149.4,42.3 149.4,30.6 146.7,30.6 	"/>
	<polygon fill="#FFFFFF" points="68.1,37.4 61.8,30.6 59.7,30.6 59.7,42.5 62.3,42.5 62.3,35.2 69,42.4 69.2,42.3 70.6,42.3 
		70.8,42.3 70.8,30.6 68.1,30.6 	"/>
	<polygon fill="#FFFFFF" points="122.9,17 129.5,24.3 129.7,24.2 131.1,24.2 131.3,24.2 131.3,12.5 128.7,12.5 128.7,19.2 
		122.3,12.5 120.2,12.5 120.2,24.4 122.9,24.4 	"/>
	<polygon fill="#FFFFFF" points="150.7,30.6 150.7,33 154.3,33 154.3,42.5 156.9,42.5 156.9,33 160.5,33 160.5,30.6 	"/>
</g>
</svg>
