<!-- Generator: Adobe Illustrator 17.1.0, SVG Export Plug-In  -->
<svg version="1.1"
	 xmlns="http://www.w3.org/2000/svg" xmlns:xlink="http://www.w3.org/1999/xlink" xmlns:a="http://ns.adobe.com/AdobeSVGViewerExtensions/3.0/"
	 x="0px" y="0px" width="958px" height="370.3px" viewBox="0 0 958 370.3" enable-background="new 0 0 958 370.3"
	 xml:space="preserve">
<defs>
</defs>
<g>
	<path fill="#FFFFFF" d="M35.1,20H1.4V0h90.2v20H58v84.1H35.1V20z"/>
	<path fill="#FFFFFF" d="M104.1,0H127v40.3h45V0h22.9v104.1H172V60.3h-45v43.9h-22.9V0z"/>
	<path fill="#FFFFFF" d="M213,0h64.3v20h-41.4v20.4h35.7v19h-35.7v24.7h43v20H213V0z"/>
	<path fill="#FFFFFF" d="M87.2,231.1c-8.9,4.7-20.1,6.9-30.5,6.9C23.2,238,0,214.9,0,184.5c0-30.2,23.2-53.8,56.7-53.8
		c10.5,0,20.7,2.4,28.9,6.5v23.2c-7.6-5.2-18.1-9.1-28.8-9.1c-20.1,0-33.9,14.1-33.9,32.9c0,18.6,13.4,33.2,34.8,33.2
		c10.8,0,20.9-3.7,29.5-9.6V231.1z"/>
	<path fill="#FFFFFF" d="M134.5,132.3h22.1l42.3,104.1h-24.4l-8.3-21.9h-42l-8.5,21.9H92.2L134.5,132.3z M131.2,196.6h28l-4.3-11.6
		c-3-8.2-6.8-18.6-9.5-26.5h-0.3c-2.7,7.9-6.5,18.3-9.8,27L131.2,196.6z"/>
	<path fill="#FFFFFF" d="M206.4,132.3h22.9v84.1h45.6v20h-68.5V132.3z"/>
	<path fill="#FFFFFF" d="M282.8,132.3h22.9v104.1h-22.9V132.3z"/>
	<path fill="#FFFFFF" d="M323.5,132.3h66v20h-43.1v22.4h37.1v19h-37.1v42.7h-22.9V132.3z"/>
	<path fill="#FFFFFF" d="M393.9,184.4c0-30.3,23.4-53.6,54.4-53.6s54.4,23.3,54.4,53.6S479.2,238,448.3,238S393.9,214.7,393.9,184.4
		z M479.8,184.4c0-18.4-13.5-32.9-31.5-32.9c-18,0-31.5,14.5-31.5,32.9s13.5,32.9,31.5,32.9C466.3,217.3,479.8,202.8,479.8,184.4z"
		/>
	<path fill="#FFFFFF" d="M515.6,132.3h32.6c12.4,0,24,1.7,32.4,6.9c7.6,4.7,12.5,12.5,12.5,24.4c0,13.4-7.3,24.3-21.1,28.8l29.3,44
		H575l-26.3-41.1h-10.2v41.1h-22.9V132.3z M550,178.2c6.2,0,10.9-0.7,14.4-2.4c3.9-2,5.9-5.5,5.9-10.5c0-4.9-1.7-8.1-5.9-10.2
		c-3.6-1.9-9.2-2.7-17.1-2.7h-8.8v25.9H550z"/>
	<path fill="#FFFFFF" d="M649.5,194.4c-6.8-9.1-13.1-17.8-19.6-26.9l-0.3,0.1c0.1,9.9,0.3,20,0.3,30.1v38.7h-22V132.3h21.6l31.2,42
		c6.8,9.1,13.1,17.8,19.6,26.9l0.3-0.1c-0.1-9.9-0.3-20-0.3-30.1v-38.7h22v104.1h-21.6L649.5,194.4z"/>
	<path fill="#FFFFFF" d="M720.5,132.3h22.9v104.1h-22.9V132.3z"/>
	<path fill="#FFFFFF" d="M792.8,132.3h22.1l42.3,104.1h-24.4l-8.3-21.9h-42l-8.5,21.9h-23.4L792.8,132.3z M789.4,196.6h28l-4.3-11.6
		c-3-8.2-6.8-18.6-9.5-26.5h-0.3c-2.7,7.9-6.5,18.3-9.8,27L789.4,196.6z"/>
	<path fill="#FFFFFF" d="M4.5,264.6h64.3v20H27.3V305H63v19H27.3v24.7h43v20H4.5V264.6z"/>
	<path fill="#FFFFFF" d="M126,326.7c-6.8-9.1-13.1-17.8-19.6-26.9l-0.3,0.1c0.1,9.9,0.3,20,0.3,30.1v38.7h-22V264.6H106l31.2,42
		c6.8,9.1,13.1,17.8,19.6,26.9l0.3-0.1c-0.1-9.9-0.3-20-0.3-30.1v-38.7h22v104.1h-21.6L126,326.7z"/>
	<path fill="#FFFFFF" d="M195.6,264.6h29.2c18.6,0,32.9,3,43.7,10.5c12.8,8.9,20,23.6,20,41.4c0,16.4-6.2,30.3-17.3,39.4
		c-10.6,8.6-25.6,12.8-47.5,12.8h-28.2V264.6z M224.8,348.8c14.8,0,24.3-2.6,30.8-8.2c6.2-5.3,10.1-13.7,10.1-24
		c0-10.9-4.3-20.1-12.1-25.6c-7.3-5.2-17.3-6.3-28.9-6.3h-6.2v64.1H224.8z"/>
	<path fill="#FFFFFF" d="M295.8,316.7c0-30.3,23.4-53.6,54.4-53.6s54.4,23.3,54.4,53.6s-23.4,53.6-54.4,53.6S295.8,347,295.8,316.7z
		 M381.6,316.7c0-18.4-13.5-32.9-31.5-32.9c-18,0-31.5,14.5-31.5,32.9s13.5,32.9,31.5,32.9C368.1,349.6,381.6,335.1,381.6,316.7z"/>
	<path fill="#FFFFFF" d="M404.1,264.6h24l13.2,44.7c2.6,8.8,5.2,18.1,7.5,26.9h0.3c2.4-8.9,5.2-18.3,7.9-27l13.8-44.6h16.7
		l13.7,44.6c2.7,8.9,5.5,18.1,7.9,27h0.3c2.3-8.8,5-18.4,7.8-27.3l13.4-44.3h23l-32.1,104.1h-24.2l-11.2-36.7
		c-2.7-8.8-5-16.5-7.3-24.9h-0.3c-2.3,8.3-4.7,16.5-7.5,25.3l-11.2,36.2h-23.9L404.1,264.6z"/>
	<path fill="#FFFFFF" d="M598.7,323.3c-5.2-7.3-10.4-15-15.2-22.3l-0.3,0.1c0.1,7.5,0.3,17.3,0.3,25.9v41.7h-22V264.6h22l30.9,44
		l30.9-44H667v104.1h-22.9V327c0-8.6,0.1-18.4,0.3-25.9l-0.3-0.1c-4.9,7.3-10.1,15-15.2,22.3l-15.1,21.4L598.7,323.3z"/>
	<path fill="#FFFFFF" d="M685.2,264.6h64.3v20h-41.4V305h35.7v19h-35.7v24.7h43v20h-65.9V264.6z"/>
	<path fill="#FFFFFF" d="M806.8,326.7c-6.8-9.1-13.1-17.8-19.6-26.9L787,300c0.1,9.9,0.3,20,0.3,30.1v38.7h-22V264.6h21.6l31.2,42
		c6.8,9.1,13.1,17.8,19.6,26.9l0.3-0.1c-0.1-9.9-0.3-20-0.3-30.1v-38.7h22v104.1H838L806.8,326.7z"/>
	<path fill="#FFFFFF" d="M901.5,284.6h-33.7v-20H958v20h-33.7v84.1h-22.9V284.6z"/>
</g>
</svg>
