<!-- Generator: Adobe Illustrator 17.1.0, SVG Export Plug-In  -->
<svg version="1.1"
	 xmlns="http://www.w3.org/2000/svg" xmlns:xlink="http://www.w3.org/1999/xlink" xmlns:a="http://ns.adobe.com/AdobeSVGViewerExtensions/3.0/"
	 x="0px" y="0px" width="122.2px" height="33.6px" viewBox="0 0 122.2 33.6" enable-background="new 0 0 122.2 33.6"
	 xml:space="preserve">
<defs>
</defs>
<g>
	<path fill="#FFFFFF" d="M6.9,13.6c2,0,3.7-0.7,5-1.9l0,0l-0.8,1.7h3.1l1.1-2.4h6.3l1.1,2.4h3.1h0.1h9.3v-2.7h-6.5V0.3h-2.9v13
		L20,0.3H17l-5,11.2l-1.9-1.9L9.9,9.7c-0.7,0.7-1.9,1.2-3,1.2c-3,0-4.1-2.1-4.1-4c0-1.2,0.4-2.3,1.1-3c0.7-0.7,1.7-1.1,2.9-1.1
		c1.1,0,2.1,0.4,2.9,1.1L10,4.1l1.9-1.9L11.7,2c-1.3-1.3-3-2-4.8-2c-2,0-3.8,0.7-5,1.9C0.7,3.2,0,5,0,6.9C0,10,1.8,13.6,6.9,13.6z
		 M16.5,8.3l2-4.5l2,4.5H16.5z"/>
	<rect x="35.9" y="0.3" fill="#FFFFFF" width="2.9" height="13.1"/>
	<polygon fill="#FFFFFF" points="43.7,8.7 48.7,8.7 48.7,6 43.7,6 43.7,3.1 49.1,3.1 49.1,0.3 40.9,0.3 40.9,13.4 43.7,13.4 	"/>
	<path fill="#FFFFFF" d="M57.2,13.6c4.6,0,6.7-3.4,6.7-6.8c0-1.9-0.7-3.8-1.9-5C60.8,0.6,59.1,0,57.2,0c-4.6,0-6.7,3.6-6.7,6.9
		C50.5,10.3,52.6,13.6,57.2,13.6z M53.3,6.9c0-1.3,0.4-2.4,1.1-3.2c0.7-0.7,1.6-1.1,2.7-1.1c1.1,0,2,0.4,2.7,1
		c0.8,0.8,1.2,1.9,1.2,3.2c0,2-1.1,4.1-3.9,4.1C54.4,11,53.4,8.9,53.3,6.9z"/>
	<path fill="#FFFFFF" d="M77.3,13.4v-0.5L73.7,8c2-0.5,2.2-2,2.2-3.6c0-2.6-1.5-4.1-4-4.1c-1,0-2,0-3,0c-1,0-2,0-3,0h-0.2v13.1h2.9
		v-5h1.9l3.7,5H77.3z M68.6,3h2.8C72.4,3,73,3.4,73,4.4c0,0.4-0.1,0.8-0.4,1c-0.3,0.3-0.7,0.5-1.3,0.5h-2.8V3z"/>
	<rect x="91.9" y="0.3" fill="#FFFFFF" width="2.9" height="13.1"/>
	<path fill="#FFFFFF" d="M101.1,0.3l-5.9,13.1h3.1l1.1-2.4h6.3l1.1,2.4h3.1l-5.9-13.1H101.1z M104.6,8.3h-3.9l2-4.5L104.6,8.3z"/>
	<path fill="#FFFFFF" d="M29.8,20.3h-5.2v13.1h5.2c1.9,0,3.6-0.6,4.7-1.8c1.2-1.2,1.8-3,1.8-4.9C36.3,23.5,34.2,20.3,29.8,20.3z
		 M27.4,23h2.3c2.6,0,3.6,1.9,3.7,3.7c0,1.2-0.3,2.2-1,2.9c-0.6,0.7-1.6,1-2.7,1h-2.3V23z"/>
	<path fill="#FFFFFF" d="M44.4,20c-4.6,0-6.7,3.6-6.7,6.9c0,3.4,2.1,6.8,6.7,6.8c4.6,0,6.7-3.4,6.7-6.8c0-1.9-0.7-3.8-1.9-5
		C48,20.6,46.3,20,44.4,20z M48.3,26.9c0,2-1.1,4.1-3.9,4.1c-2.8,0-3.8-2.1-3.9-4c0-1.3,0.4-2.4,1.1-3.2c0.7-0.7,1.6-1.1,2.7-1.1
		c1.1,0,2,0.4,2.7,1C47.9,24.5,48.3,25.6,48.3,26.9z"/>
	<polygon fill="#FFFFFF" points="64.5,28.8 61.5,20.3 59.6,20.3 56.7,28.8 53.9,20.3 50.7,20.3 55.5,33.4 57.9,33.4 59.5,29.3 
		60.6,26 61.7,29.2 63.3,33.4 65.7,33.4 70.4,20.3 67.2,20.3 	"/>
	<polygon fill="#FFFFFF" points="78.4,25.5 74.6,20.3 71.5,20.3 71.5,33.4 74.4,33.4 74.4,24.7 78,29.7 78.7,29.7 82.5,24.7 
		82.5,33.4 85.4,33.4 85.4,20.3 82.3,20.3 	"/>
	<polygon fill="#FFFFFF" points="87.5,33.4 96,33.4 96,30.5 90.3,30.5 90.3,28.2 95.7,28.2 95.7,25.5 90.3,25.5 90.3,23.1 96,23.1 
		96,20.3 87.5,20.3 	"/>
	<polygon fill="#FFFFFF" points="0.5,33.4 9,33.4 9,30.5 3.3,30.5 3.3,28.2 8.7,28.2 8.7,25.5 3.3,25.5 3.3,23.1 9,23.1 9,20.3 
		0.5,20.3 	"/>
	<polygon fill="#FFFFFF" points="106.9,27.7 100,20.3 97.6,20.3 97.6,33.4 100.5,33.4 100.5,25.3 107.9,33.3 108.1,33.1 109.6,33.1 
		109.9,33.1 109.9,20.2 106.9,20.2 	"/>
	<polygon fill="#FFFFFF" points="20.1,27.7 13.1,20.3 10.7,20.3 10.7,33.4 13.7,33.4 13.7,25.3 21,33.3 21.2,33.1 22.8,33.1 
		23,33.1 23,20.2 20.1,20.2 	"/>
	<polygon fill="#FFFFFF" points="80.6,5.2 87.9,13.3 88.1,13.1 89.7,13.1 89.9,13.1 89.9,0.2 87,0.2 87,7.7 80,0.2 77.6,0.2 
		77.6,13.3 80.6,13.3 	"/>
	<polygon fill="#FFFFFF" points="111.3,20.3 111.3,22.9 115.3,22.9 115.3,33.4 118.2,33.4 118.2,22.9 122.2,22.9 122.2,20.3 	"/>
</g>
</svg>
