<!-- Generator: Adobe Illustrator 17.1.0, SVG Export Plug-In  -->
<svg version="1.1"
	 xmlns="http://www.w3.org/2000/svg" xmlns:xlink="http://www.w3.org/1999/xlink" xmlns:a="http://ns.adobe.com/AdobeSVGViewerExtensions/3.0/"
	 x="0px" y="0px" width="15.4px" height="15.2px" viewBox="0 0 15.4 15.2" enable-background="new 0 0 15.4 15.2"
	 xml:space="preserve">
<defs>
</defs>
<path fill="#F0F1F3" d="M15.1,13.5l-3.7-3.7c0.7-1,1.1-2.2,1.1-3.6C12.5,2.8,9.7,0,6.2,0C2.8,0,0,2.8,0,6.3s2.8,6.3,6.2,6.3
	c1.4,0,2.7-0.5,3.7-1.2l3.7,3.7c0.2,0.2,0.5,0.3,0.7,0.3c0.3,0,0.5-0.1,0.7-0.3C15.5,14.6,15.5,13.9,15.1,13.5z M2,6.3
	C2,3.9,3.9,2,6.2,2c2.3,0,4.3,1.9,4.3,4.3c0,2.3-1.9,4.3-4.3,4.3C3.9,10.5,2,8.6,2,6.3z"/>
</svg>
