<!-- Generator: Adobe Illustrator 17.1.0, SVG Export Plug-In  -->
<svg version="1.1"
	 xmlns="http://www.w3.org/2000/svg" xmlns:xlink="http://www.w3.org/1999/xlink" xmlns:a="http://ns.adobe.com/AdobeSVGViewerExtensions/3.0/"
	 x="0px" y="0px" width="46.4px" height="77.4px" viewBox="0 0 46.4 77.4" enable-background="new 0 0 46.4 77.4"
	 xml:space="preserve">
<defs>
</defs>
<path fill="#EFC518" d="M13.5,16.9l0.6,0.1c0,0-0.1-0.1-0.1-0.2L14,13.6c0-0.2,0-0.2,0.4-0.4l17.3-5.1c0.1,0,0.3,0.1,0.3,0.2
	l0.1,6.5c0,0.1,0,0.1-0.1,0.1C32,15,31.9,15,31.8,15l-17.3,2.1l1.8,0.3l5.4-0.6l2.1-0.2l8.1-1c0.2,0,0.5-0.1,0.6-0.3
	c0.1-0.1,0.2-0.3,0.2-0.5l-0.1-6.5c0-0.4-0.4-0.8-0.9-0.8h0l-7.5,2.2l-2.6,0.8l-7.3,2.2c-0.6,0.2-0.8,0.4-0.8,0.9L13.5,16.9
	C13.5,16.9,13.5,16.9,13.5,16.9z"/>
<path fill="#EFC518" d="M33,21.4C33,21.4,33,21.4,33,21.4l-8.9-1.6l-2.5-0.4l-6.3-1.1L13,17.8l-1.7-0.3c-0.5,0-0.9,0.4-0.9,0.8
	l-0.1,7.5c0,0.5,0.4,0.8,0.9,0.8l10.6,0.3l2.3,0.1l8.8,0.2h0c0.5,0,0.9-0.4,0.9-0.8v-4.2C33.8,21.7,33.4,21.4,33,21.4z M33.2,26.4
	c0,0.1-0.1,0.2-0.3,0.2L11.3,26c-0.1,0-0.3-0.1-0.3-0.2l0.1-7.5c0-0.1,0.1-0.2,0.2-0.2L33,22c0.1,0,0.3,0.1,0.3,0.2V26.4z"/>
<path fill="#EFC518" d="M23.6,0c-0.1,0-0.2,0-0.3,0c-0.1,0-0.2,0-0.3,0C10.6,0,0,10.6,0,22.9c0,10.3,9.7,16.2,15.1,26.9
	c5.4,10.8,7.2,21.9,8.1,27.4c0,0,0,0,0,0c0,0.1,0,0.2,0.1,0.2c0,0,0-0.1,0.1-0.2c0,0,0,0,0,0c0.9-5.5,2.7-16.6,8.1-27.4
	c5.4-10.7,15.1-16.7,15.1-26.9C46.4,10.6,35.8,0,23.6,0z M23.3,63.3c-0.5,0-1.1-19.7-1.4-35.4l2.2,0.8C24,44.3,23.8,63.3,23.3,63.3z
	 M34.5,27.1c0,0.5-0.4,0.9-0.9,0.9h0l-23.1-0.6c-0.5,0-0.9-0.4-0.9-0.9l0.1-9.2c0-0.5,0.4-0.9,0.9-0.9l2.4,0.4v-3.4
	c0-0.4,0.1-0.8,0.8-1.1l18.7-5.9c0.5,0,0.9,0.4,0.9,0.9v7.9c0,0.5-0.4,0.9-0.9,0.9l-13.8,1.6l3,0.5c0-0.2,0-0.5,0-0.7l2.5,0.7
	c0,0.2,0,0.3,0,0.5l9.4,1.7c0,0,0,0,0,0c0.5,0,0.9,0.4,0.9,0.9V27.1z"/>
</svg>
