<!-- Generator: Adobe Illustrator 17.1.0, SVG Export Plug-In  -->
<svg version="1.1"
	 xmlns="http://www.w3.org/2000/svg" xmlns:xlink="http://www.w3.org/1999/xlink" xmlns:a="http://ns.adobe.com/AdobeSVGViewerExtensions/3.0/"
	 x="0px" y="0px" width="81.6px" height="135.9px" viewBox="0 0 81.6 135.9" enable-background="new 0 0 81.6 135.9"
	 xml:space="preserve">
<defs>
</defs>
<path fill="#EFC418" d="M41.4,0c-0.2,0-0.4,0-0.6,0c-0.2,0-0.4,0-0.6,0C18.7,0,0,18.6,0,40.2c0,18.1,17,28.5,26.5,47.3
	c9.5,18.9,12.7,38.5,14.2,48.1c0,0,0,0,0,0c0,0.2,0.1,0.3,0.1,0.3c0,0,0.1-0.1,0.1-0.3c0,0,0,0,0,0c1.6-9.6,4.7-29.2,14.2-48.1
	c9.5-18.8,26.5-29.3,26.5-47.3C81.6,18.6,62.9,0,41.4,0z"/>
<path fill-rule="evenodd" clip-rule="evenodd" fill="#FFFFFF" stroke="#FFFFFF" stroke-width="0.5641" stroke-linecap="round" stroke-linejoin="round" d="
	M37.4,18.7c0.1,0.7,0,1.4,0,2.1c-1.7,0.3-3.3-0.5-4.4,0.1c-0.7,0.3-0.9,1.4-1.1,2c-0.3,0.8-0.6,1.5-0.8,2.3
	c6.4,0.3,12.6,0.1,18.7,0.3c0.6-0.6,0.8-1.5,1.2-2.3c-1.5-0.3-4.3,0.6-4.4-1.1c-0.1-1.7,3.1-1.1,5.1-1.1c1.7,0,3.3,0.1,4.5,0.1
	c0,0.7,0,1.2,0,2c-0.8,0.1-1.8,0-2.7,0.1c-0.3,0.5-0.6,1-0.9,1.6c-0.3,0.5-0.7,1.2-0.7,1.7c0,0.4,0.4,1.1,0.7,1.6
	c0.7,1.5,1.5,3.3,2.2,4.6c0.9-0.1,1.7-0.5,2.8-0.6c6.4-0.5,11.4,4.2,11.8,10.2c0.3,3.9-1.4,6.8-3.4,8.8c-1.8,1.8-4.5,2.9-7.5,3
	c-3.2,0.1-5.8-1.3-7.6-3c-1.9-1.7-3.1-3.9-3.5-7c-0.8,0-1.7-0.1-2.7-0.1c-0.8,0-2,0.2-2.7-0.1c-0.5-0.2-1.2-1.2-1.7-1.7
	c-3.7-4-7.3-8.7-11-12.5c-0.5,1-0.8,2-1.2,3.1c3.2,2,5.7,4.5,6,9.2c0.4,4.6-2,8.1-5.1,10.1c-1.7,1.1-3.6,1.7-5.9,1.7
	c-2.2,0-4.4-0.7-5.9-1.7c-2.9-2-5.4-5.1-5.1-10.1c0.2-3,1.6-5.5,3.3-7.2c2.2-2.2,6.3-3.9,10.5-2.8c0.8-1.5,1.6-3.7,2.3-5.9
	c0.7-2.1,1.4-4.4,2.2-5.9c0.5-0.9,1.5-1.7,2.8-1.8C34.6,18.6,35.9,18.8,37.4,18.7z M30.4,27.6c0.3,0.5,0.9,1.2,1.4,1.8
	c2.5,2.9,5,5.6,7.3,8.4c1,1.1,1.9,2.3,3,3.3c2.2-4.4,4.5-8.8,6.5-13.4c-5.9-0.2-12.5-0.1-18.4-0.2C30.4,27.5,30.3,27.6,30.4,27.6z
	 M44.2,42c0.9,0.1,2.1,0,3.1,0.1c0.6-4,2.6-6.5,5.3-8.3c-0.7-1.5-1.3-3.2-2.2-4.6C48.4,33.4,46.2,37.6,44.2,42z M16,37.5
	c-1.1,1.5-2.2,4.2-1.6,7.2c0.7,3.8,4.2,6.9,8.1,7.1c5.5,0.3,9.8-3.7,9.7-9.1c-0.1-3.8-2.2-6.2-4.8-7.7c-1,2.2-1.8,4.7-2.7,7.1
	c-0.3,0.6-0.6,1.8-1.5,1.8c-1.8-0.1-0.6-2.2-0.2-3.1c0.8-2.2,1.7-4.5,2.3-6.5C21.1,33.3,17.7,35.3,16,37.5z M53.4,50.7
	c6,3.9,14.5-0.4,13.9-8.4c-0.2-2.1-1.3-4.1-2.6-5.4c-1.9-1.9-5.6-3.3-9-2.1c0.9,2.2,1.9,4.2,2.9,6.4c0.3,0.6,1,1.5,0.9,2.3
	c-0.2,1.3-3.2,0.8-4.6,0.7c-1.7-0.1-3.7,0-5.3,0.1C50,47.3,51.4,49.4,53.4,50.7z M53.7,35.7c0,0-0.1,0-0.1,0
	C51.5,37.1,50,39,49.6,42c2,0.1,4.7,0,7,0.1C55.7,39.9,54.7,37.8,53.7,35.7z"/>
</svg>
