<!-- Generator: Adobe Illustrator 17.1.0, SVG Export Plug-In  -->
<svg version="1.1"
	 xmlns="http://www.w3.org/2000/svg" xmlns:xlink="http://www.w3.org/1999/xlink" xmlns:a="http://ns.adobe.com/AdobeSVGViewerExtensions/3.0/"
	 x="0px" y="0px" width="73px" height="73px" viewBox="0 0 73 73" enable-background="new 0 0 73 73" xml:space="preserve">
<defs>
</defs>
<polygon opacity="0.2" fill="#FFFFFF" points="0,0 0,1.4 1.4,0 "/>
<polygon opacity="0.2" fill="#FFFFFF" points="7.7,0 0,7.7 0,10.5 10.5,0 "/>
<polygon opacity="0.2" fill="#FFFFFF" points="16.8,0 0,16.8 0,19.7 19.7,0 "/>
<polygon opacity="0.2" fill="#FFFFFF" points="26,0 0,26 0,28.8 28.8,0 "/>
<polygon opacity="0.2" fill="#FFFFFF" points="35.1,0 0,35.1 0,37.9 37.9,0 "/>
<polygon opacity="0.2" fill="#FFFFFF" points="44.2,0 0,44.2 0,47 47.1,0 "/>
<polygon opacity="0.2" fill="#FFFFFF" points="53.4,0 0,53.3 0,56.2 56.2,0 "/>
<polygon opacity="0.2" fill="#FFFFFF" points="62.5,0 0,62.5 0,65.3 65.3,0 "/>
<polygon opacity="0.2" fill="#FFFFFF" points="73,0 71.6,0 0,71.6 0,73 1.4,73 73,1.4 "/>
<polygon opacity="0.2" fill="#FFFFFF" points="10.6,73 73,10.6 73,7.7 7.7,73 "/>
<polygon opacity="0.2" fill="#FFFFFF" points="19.7,73 73,19.7 73,16.9 16.9,73 "/>
<polygon opacity="0.2" fill="#FFFFFF" points="28.8,73 73,28.8 73,26 26,73 "/>
<polygon opacity="0.2" fill="#FFFFFF" points="38,73 73,37.9 73,35.1 35.1,73 "/>
<polygon opacity="0.2" fill="#FFFFFF" points="47.1,73 73,47.1 73,44.2 44.3,73 "/>
<polygon opacity="0.2" fill="#FFFFFF" points="56.2,73 73,56.2 73,53.4 53.4,73 "/>
<polygon opacity="0.2" fill="#FFFFFF" points="65.3,73 73,65.3 73,62.5 62.5,73 "/>
<polygon opacity="0.2" fill="#FFFFFF" points="73,73 73,71.6 71.6,73 "/>
</svg>
