<!-- Generator: Adobe Illustrator 17.1.0, SVG Export Plug-In  -->
<svg version="1.1"
	 xmlns="http://www.w3.org/2000/svg" xmlns:xlink="http://www.w3.org/1999/xlink" xmlns:a="http://ns.adobe.com/AdobeSVGViewerExtensions/3.0/"
	 x="0px" y="0px" width="39.2px" height="65.4px" viewBox="0 0 39.2 65.4" enable-background="new 0 0 39.2 65.4"
	 xml:space="preserve">
<defs>
</defs>
<path fill="#1F2233" d="M11.4,14.3l0.5,0.1c0,0-0.1-0.1-0.1-0.2l0-2.8c0-0.1,0-0.2,0.3-0.3l14.7-4.3C26.9,6.9,27,6.9,27,7l0.1,5.5
	c0,0,0,0.1,0,0.1c0,0-0.1,0.1-0.2,0.1l-14.6,1.8l1.5,0.3l4.6-0.5l1.8-0.2l6.8-0.8c0.2,0,0.4-0.1,0.5-0.2c0.1-0.1,0.2-0.3,0.2-0.5
	L27.5,7c0-0.4-0.3-0.7-0.7-0.7l0,0l-6.3,1.9l-2.2,0.7L12,10.7c-0.5,0.2-0.7,0.4-0.7,0.8L11.4,14.3C11.4,14.3,11.4,14.3,11.4,14.3z"
	/>
<path fill="#1F2233" d="M27.9,18.1C27.9,18.1,27.9,18.1,27.9,18.1l-7.5-1.3l-2.1-0.4l-5.3-1l-2-0.4l-1.4-0.3c-0.4,0-0.7,0.3-0.7,0.7
	l-0.1,6.3c0,0.4,0.3,0.7,0.7,0.7l9,0.2l1.9,0l7.4,0.2h0c0.4,0,0.7-0.3,0.7-0.7v-3.5C28.6,18.4,28.2,18.1,27.9,18.1z M28.1,22.3
	c0,0.1-0.1,0.2-0.2,0.2L9.5,22c-0.1,0-0.2-0.1-0.2-0.2l0.1-6.3c0-0.1,0.1-0.2,0.2-0.2l18.3,3.3c0.1,0,0.2,0.1,0.2,0.2V22.3z"/>
<path fill="#1F2233" d="M19.9,0c-0.1,0-0.2,0-0.3,0c-0.1,0-0.2,0-0.3,0C9,0,0,9,0,19.3C0,28,8.2,33,12.7,42.1
	c4.6,9.1,6.1,18.5,6.8,23.1c0,0,0,0,0,0c0,0.1,0,0.1,0,0.1c0,0,0,0,0-0.1c0,0,0,0,0,0c0.7-4.6,2.3-14,6.8-23.1
	C31.1,33,39.2,28,39.2,19.3C39.2,9,30.3,0,19.9,0z M19.7,53.5c-0.5,0-0.9-16.7-1.2-29.9l1.9,0.7C20.3,37.5,20.1,53.5,19.7,53.5z
	 M29.1,22.9c0,0.4-0.4,0.8-0.8,0.8h0L8.8,23.2c-0.4,0-0.8-0.4-0.8-0.8l0.1-7.7c0-0.4,0.4-0.8,0.8-0.8l2.1,0.4v-2.8
	c0-0.3,0.1-0.7,0.7-0.9l15.8-5c0.4,0,0.8,0.4,0.8,0.8v6.7c0,0.4-0.4,0.8-0.8,0.8l-11.7,1.4l2.6,0.5c0-0.2,0-0.4,0-0.6l2.1,0.6
	c0,0.1,0,0.3,0,0.4l8,1.4c0,0,0,0,0,0c0.4,0,0.7,0.4,0.7,0.8V22.9z"/>
</svg>
